<svg xmlns="http://www.w3.org/2000/svg" xmlns:xlink="http://www.w3.org/1999/xlink" viewBox="0,0,256,256" width="50px" height="50px" fill-rule="nonzero"><g fill="#ffffff" fill-rule="nonzero" stroke="none" stroke-width="1" stroke-linecap="butt" stroke-linejoin="miter" stroke-miterlimit="10" stroke-dasharray="" stroke-dashoffset="0" font-family="none" font-weight="none" font-size="none" text-anchor="none" style="mix-blend-mode: normal"><g transform="scale(5.12,5.12)"><path d="M5,5c-0.55226,0.00006 -0.99994,0.44774 -1,1v38c0.00006,0.55226 0.44774,0.99994 1,1h3c0.36064,0.0051 0.69608,-0.18438 0.87789,-0.49587c0.18181,-0.3115 0.18181,-0.69676 0,-1.00825c-0.18181,-0.3115 -0.51725,-0.50097 -0.87789,-0.49587h-2v-36h2c0.36064,0.0051 0.69608,-0.18438 0.87789,-0.49587c0.18181,-0.3115 0.18181,-0.69676 0,-1.00825c-0.18181,-0.3115 -0.51725,-0.50097 -0.87789,-0.49587zM42,5c-0.36064,-0.0051 -0.69608,0.18438 -0.87789,0.49587c-0.18181,0.3115 -0.18181,0.69676 0,1.00825c0.18181,0.3115 0.51725,0.50097 0.87789,0.49587h2v36h-2c-0.36064,-0.0051 -0.69608,0.18438 -0.87789,0.49587c-0.18181,0.3115 -0.18181,0.69676 0,1.00825c0.18181,0.3115 0.51725,0.50097 0.87789,0.49587h3c0.55226,-0.00006 0.99994,-0.44774 1,-1v-38c-0.00006,-0.55226 -0.44774,-0.99994 -1,-1zM31.08984,16.50781c-1.28233,-0.02857 -2.58502,0.2892 -3.67969,1.04297c-0.35593,0.2456 -0.60715,0.50063 -0.89648,0.75977c-0.4421,-0.50626 -0.93455,-0.93618 -1.49805,-1.19727c-0.90207,-0.41796 -1.87607,-0.54613 -2.8457,-0.5625c-1.08531,-0.01868 -2.04812,0.29196 -2.8457,0.8125c-0.13986,0.09128 -0.23588,0.24802 -0.36719,0.34961c-0.12675,-0.42278 -0.51566,-0.71248 -0.95703,-0.71289h-4c-0.55226,0.00006 -0.99994,0.44774 -1,1v14c0.00006,0.55226 0.44774,0.99994 1,1h4c0.26555,-0.00003 0.52018,-0.10566 0.70777,-0.29361c0.18759,-0.18795 0.29272,-0.44279 0.29223,-0.70834c0,0 -0.01,-3.88295 0,-6.47656c0.0019,-0.43753 0.02269,-0.84268 0.09375,-1.18359c0.20025,-0.95912 0.80582,-1.42032 1.7832,-1.3418c0.50785,0.04094 0.68316,0.15116 0.81641,0.31055c0.13324,0.15938 0.27872,0.50578 0.30664,1.18359c-0.0042,-0.10766 0.00341,0.53786 0.00391,1.25781c0.00052,0.71995 0.00069,1.65402 0,2.58008c-0.00137,1.85212 -0.00391,3.66992 -0.00391,3.66992c-0.00049,0.26555 0.10464,0.52039 0.29223,0.70834c0.18759,0.18795 0.44222,0.29359 0.70777,0.29361h4c0.55226,-0.00006 0.99994,-0.44774 1,-1v-6.41602c0.0054,-0.53573 0.06227,-1.07527 0.18359,-1.56055c0.11079,-0.4418 0.29484,-0.67136 0.55078,-0.83203c0.25594,-0.16067 0.63228,-0.25714 1.17383,-0.19727c0.00065,0 0.0013,0 0.00195,0c0.47134,0.052 0.66641,0.16682 0.79688,0.31055c0.12966,0.14284 0.25506,0.41063 0.29297,0.95117v7.74414c0.00006,0.55226 0.44774,0.99994 1,1h4c0.55226,-0.00006 0.99994,-0.44774 1,-1v-10c0,-1.07242 -0.33632,-1.90857 -0.66211,-2.56445c-0.76393,-1.53893 -2.32357,-2.45427 -3.98047,-2.78711c-0.41422,-0.08321 -0.84013,-0.1311 -1.26758,-0.14063zM31.05664,18.51172c0.30501,0.00522 0.61086,0.03793 0.9082,0.09766c1.18936,0.23892 2.17396,0.89473 2.58203,1.7168c0.28021,0.56412 0.45313,0.98625 0.45313,1.67383v9h-2v-6.80664c0.00008,-0.02215 -0.00057,-0.0443 -0.00195,-0.06641c-0.05598,-0.82763 -0.28877,-1.59124 -0.81055,-2.16602c-0.52178,-0.57478 -1.26993,-0.86808 -2.05859,-0.95508c-0.88745,-0.09812 -1.74922,0.0459 -2.45703,0.49023c-0.70781,0.44433 -1.21252,1.18282 -1.42773,2.04102c0,0.00065 0,0.0013 0,0.00195c-0.16863,0.67468 -0.23751,1.36116 -0.24414,2.02344c-0.00002,0.00326 -0.00002,0.00651 0,0.00977v5.42773h-1.99805c0.00087,-0.62491 0.00091,-1.32246 0.00195,-2.66992c0.00069,-0.92656 0.00052,-1.86216 0,-2.58398c-0.00052,-0.72183 0.00579,-1.08878 -0.00391,-1.33594c0,-0.00065 0,-0.0013 0,-0.00195c-0.03807,-0.92419 -0.23823,-1.7469 -0.77148,-2.38477c-0.53326,-0.63787 -1.3453,-0.95147 -2.18945,-1.01953c-0.00065,0 -0.0013,0 -0.00195,0c-1.86062,-0.14948 -3.52064,1.10494 -3.90039,2.92383c0,0.00065 0,0.0013 0,0.00195c-0.11695,0.56108 -0.13461,1.09752 -0.13672,1.58398c-0.0085,2.2039 -0.002,4.57652 0,5.48633h-2v-12h2v1c0.00025,0.42072 0.26378,0.79629 0.65932,0.93964c0.39554,0.14336 0.8385,0.02384 1.10825,-0.29902c0.60169,-0.72145 1.13252,-1.26485 1.64844,-1.60156c0.51591,-0.33671 1.00501,-0.5006 1.7207,-0.48828c0.80737,0.01363 1.50068,0.13036 2.03711,0.37891c0.53643,0.24854 0.94302,0.6005 1.28125,1.27539c0.13767,0.27537 0.3945,0.47198 0.69625,0.53302c0.30175,0.06104 0.6148,-0.0203 0.84867,-0.22052c0.60857,-0.52148 1.08199,-1.00066 1.54492,-1.32031c0.68508,-0.47173 1.5967,-0.70122 2.51172,-0.68555z"></path></g></g></svg>